<svg id="Layer_1" data-name="Layer 1" xmlns="http://www.w3.org/2000/svg" viewBox="0 0 127.56 94.33"><defs><style>.cls-1{fill:#3aa091;}</style></defs><title>Logo</title><path class="cls-1" d="M148.82,99.77a4.09,4.09,0,0,1-4.08,4.09H25.34a4.09,4.09,0,0,1-4.08-4.09V93.12A4.1,4.1,0,0,1,25.34,89h119.4a4.09,4.09,0,0,1,4.08,4.1Z" transform="translate(-21.26 -9.53)"/><path class="cls-1" d="M148.82,77.43a4.09,4.09,0,0,1-4.08,4.1H25.34a4.1,4.1,0,0,1-4.08-4.1V13.61a4.08,4.08,0,0,1,4.08-4.08h119.4a4.08,4.08,0,0,1,4.08,4.08ZM136.1,24.71a3.34,3.34,0,0,0-3.35-3.34h-96a3.34,3.34,0,0,0-3.35,3.34V65.79a3.35,3.35,0,0,0,3.35,3.35h96a3.35,3.35,0,0,0,3.35-3.35Z" transform="translate(-21.26 -9.53)"/></svg>